<mxfile host="app.diagrams.net" agent="Mozilla/5.0 (Windows NT 10.0; Win64; x64) AppleWebKit/537.36 (KHTML, like Gecko) Chrome/140.0.0.0 Safari/537.36" version="28.2.5">
  <diagram name="หน้า-1" id="eywvGD7kMOkYVBu4q4Pa">
    <mxGraphModel dx="1959" dy="874" grid="1" gridSize="10" guides="1" tooltips="1" connect="1" arrows="1" fold="1" page="1" pageScale="1" pageWidth="827" pageHeight="1169" math="0" shadow="0">
      <root>
        <mxCell id="0" />
        <mxCell id="1" parent="0" />
        <mxCell id="E3Iunt0LOtIl-F0CnCVZ-74" value="" style="edgeStyle=orthogonalEdgeStyle;rounded=0;orthogonalLoop=1;jettySize=auto;html=1;" edge="1" parent="1" source="2" target="E3Iunt0LOtIl-F0CnCVZ-73">
          <mxGeometry relative="1" as="geometry" />
        </mxCell>
        <mxCell id="2" value="Start" style="ellipse;whiteSpace=wrap;html=1;" vertex="1" parent="1">
          <mxGeometry x="220" width="120" height="40" as="geometry" />
        </mxCell>
        <mxCell id="E3Iunt0LOtIl-F0CnCVZ-80" value="" style="edgeStyle=orthogonalEdgeStyle;rounded=0;orthogonalLoop=1;jettySize=auto;html=1;" edge="1" parent="1" source="5" target="E3Iunt0LOtIl-F0CnCVZ-78">
          <mxGeometry relative="1" as="geometry" />
        </mxCell>
        <mxCell id="E3Iunt0LOtIl-F0CnCVZ-82" value="" style="edgeStyle=orthogonalEdgeStyle;rounded=0;orthogonalLoop=1;jettySize=auto;html=1;" edge="1" parent="1" source="5" target="7">
          <mxGeometry relative="1" as="geometry" />
        </mxCell>
        <mxCell id="5" value="num == 0 ?" style="rhombus;whiteSpace=wrap;html=1;" vertex="1" parent="1">
          <mxGeometry x="200" y="320" width="160" height="80" as="geometry" />
        </mxCell>
        <mxCell id="E3Iunt0LOtIl-F0CnCVZ-85" value="" style="edgeStyle=orthogonalEdgeStyle;rounded=0;orthogonalLoop=1;jettySize=auto;html=1;" edge="1" parent="1" source="7" target="E3Iunt0LOtIl-F0CnCVZ-81">
          <mxGeometry relative="1" as="geometry" />
        </mxCell>
        <mxCell id="E3Iunt0LOtIl-F0CnCVZ-103" value="" style="edgeStyle=orthogonalEdgeStyle;rounded=0;orthogonalLoop=1;jettySize=auto;html=1;" edge="1" parent="1" source="7" target="9">
          <mxGeometry relative="1" as="geometry" />
        </mxCell>
        <mxCell id="7" value="num == 1 ?" style="rhombus;whiteSpace=wrap;html=1;" vertex="1" parent="1">
          <mxGeometry x="200" y="440" width="160" height="80" as="geometry" />
        </mxCell>
        <mxCell id="E3Iunt0LOtIl-F0CnCVZ-93" value="" style="edgeStyle=orthogonalEdgeStyle;rounded=0;orthogonalLoop=1;jettySize=auto;html=1;" edge="1" parent="1" source="9" target="E3Iunt0LOtIl-F0CnCVZ-86">
          <mxGeometry relative="1" as="geometry" />
        </mxCell>
        <mxCell id="E3Iunt0LOtIl-F0CnCVZ-104" value="" style="edgeStyle=orthogonalEdgeStyle;rounded=0;orthogonalLoop=1;jettySize=auto;html=1;" edge="1" parent="1" source="9" target="11">
          <mxGeometry relative="1" as="geometry" />
        </mxCell>
        <mxCell id="9" value="num == 2 ?" style="rhombus;whiteSpace=wrap;html=1;" vertex="1" parent="1">
          <mxGeometry x="200" y="560" width="160" height="80" as="geometry" />
        </mxCell>
        <mxCell id="E3Iunt0LOtIl-F0CnCVZ-92" value="" style="edgeStyle=orthogonalEdgeStyle;rounded=0;orthogonalLoop=1;jettySize=auto;html=1;" edge="1" parent="1" source="11" target="E3Iunt0LOtIl-F0CnCVZ-87">
          <mxGeometry relative="1" as="geometry" />
        </mxCell>
        <mxCell id="E3Iunt0LOtIl-F0CnCVZ-105" value="" style="edgeStyle=orthogonalEdgeStyle;rounded=0;orthogonalLoop=1;jettySize=auto;html=1;" edge="1" parent="1" source="11" target="13">
          <mxGeometry relative="1" as="geometry" />
        </mxCell>
        <mxCell id="11" value="num == 3 ?" style="rhombus;whiteSpace=wrap;html=1;" vertex="1" parent="1">
          <mxGeometry x="200" y="680" width="160" height="80" as="geometry" />
        </mxCell>
        <mxCell id="E3Iunt0LOtIl-F0CnCVZ-94" value="" style="edgeStyle=orthogonalEdgeStyle;rounded=0;orthogonalLoop=1;jettySize=auto;html=1;" edge="1" parent="1" source="13" target="E3Iunt0LOtIl-F0CnCVZ-88">
          <mxGeometry relative="1" as="geometry" />
        </mxCell>
        <mxCell id="E3Iunt0LOtIl-F0CnCVZ-106" value="" style="edgeStyle=orthogonalEdgeStyle;rounded=0;orthogonalLoop=1;jettySize=auto;html=1;" edge="1" parent="1" source="13" target="15">
          <mxGeometry relative="1" as="geometry" />
        </mxCell>
        <mxCell id="13" value="num == 4 ?" style="rhombus;whiteSpace=wrap;html=1;" vertex="1" parent="1">
          <mxGeometry x="200" y="800" width="160" height="80" as="geometry" />
        </mxCell>
        <mxCell id="E3Iunt0LOtIl-F0CnCVZ-97" value="" style="edgeStyle=orthogonalEdgeStyle;rounded=0;orthogonalLoop=1;jettySize=auto;html=1;" edge="1" parent="1" source="15" target="E3Iunt0LOtIl-F0CnCVZ-89">
          <mxGeometry relative="1" as="geometry" />
        </mxCell>
        <mxCell id="E3Iunt0LOtIl-F0CnCVZ-107" value="" style="edgeStyle=orthogonalEdgeStyle;rounded=0;orthogonalLoop=1;jettySize=auto;html=1;" edge="1" parent="1" source="15" target="17">
          <mxGeometry relative="1" as="geometry" />
        </mxCell>
        <mxCell id="15" value="num == 5 ?" style="rhombus;whiteSpace=wrap;html=1;" vertex="1" parent="1">
          <mxGeometry x="200" y="920" width="160" height="80" as="geometry" />
        </mxCell>
        <mxCell id="E3Iunt0LOtIl-F0CnCVZ-96" value="" style="edgeStyle=orthogonalEdgeStyle;rounded=0;orthogonalLoop=1;jettySize=auto;html=1;" edge="1" parent="1" source="17" target="E3Iunt0LOtIl-F0CnCVZ-90">
          <mxGeometry relative="1" as="geometry" />
        </mxCell>
        <mxCell id="E3Iunt0LOtIl-F0CnCVZ-108" value="" style="edgeStyle=orthogonalEdgeStyle;rounded=0;orthogonalLoop=1;jettySize=auto;html=1;" edge="1" parent="1" source="17" target="19">
          <mxGeometry relative="1" as="geometry" />
        </mxCell>
        <mxCell id="17" value="num == 6 ?" style="rhombus;whiteSpace=wrap;html=1;" vertex="1" parent="1">
          <mxGeometry x="200" y="1040" width="160" height="80" as="geometry" />
        </mxCell>
        <mxCell id="E3Iunt0LOtIl-F0CnCVZ-95" value="" style="edgeStyle=orthogonalEdgeStyle;rounded=0;orthogonalLoop=1;jettySize=auto;html=1;" edge="1" parent="1" source="19" target="E3Iunt0LOtIl-F0CnCVZ-91">
          <mxGeometry relative="1" as="geometry" />
        </mxCell>
        <mxCell id="E3Iunt0LOtIl-F0CnCVZ-109" value="" style="edgeStyle=orthogonalEdgeStyle;rounded=0;orthogonalLoop=1;jettySize=auto;html=1;" edge="1" parent="1" source="19" target="21">
          <mxGeometry relative="1" as="geometry" />
        </mxCell>
        <mxCell id="19" value="num == 7 ?" style="rhombus;whiteSpace=wrap;html=1;" vertex="1" parent="1">
          <mxGeometry x="200" y="1160" width="160" height="80" as="geometry" />
        </mxCell>
        <mxCell id="E3Iunt0LOtIl-F0CnCVZ-110" value="" style="edgeStyle=orthogonalEdgeStyle;rounded=0;orthogonalLoop=1;jettySize=auto;html=1;" edge="1" parent="1" source="21" target="23">
          <mxGeometry relative="1" as="geometry" />
        </mxCell>
        <mxCell id="E3Iunt0LOtIl-F0CnCVZ-113" value="" style="edgeStyle=orthogonalEdgeStyle;rounded=0;orthogonalLoop=1;jettySize=auto;html=1;" edge="1" parent="1" source="21" target="E3Iunt0LOtIl-F0CnCVZ-98">
          <mxGeometry relative="1" as="geometry" />
        </mxCell>
        <mxCell id="21" value="num == 8 ?" style="rhombus;whiteSpace=wrap;html=1;" vertex="1" parent="1">
          <mxGeometry x="200" y="1280" width="160" height="80" as="geometry" />
        </mxCell>
        <mxCell id="E3Iunt0LOtIl-F0CnCVZ-111" value="" style="edgeStyle=orthogonalEdgeStyle;rounded=0;orthogonalLoop=1;jettySize=auto;html=1;" edge="1" parent="1" source="23" target="25">
          <mxGeometry relative="1" as="geometry" />
        </mxCell>
        <mxCell id="E3Iunt0LOtIl-F0CnCVZ-114" value="" style="edgeStyle=orthogonalEdgeStyle;rounded=0;orthogonalLoop=1;jettySize=auto;html=1;" edge="1" parent="1" source="23" target="E3Iunt0LOtIl-F0CnCVZ-99">
          <mxGeometry relative="1" as="geometry" />
        </mxCell>
        <mxCell id="23" value="num == 9 ?" style="rhombus;whiteSpace=wrap;html=1;" vertex="1" parent="1">
          <mxGeometry x="200" y="1400" width="160" height="80" as="geometry" />
        </mxCell>
        <mxCell id="E3Iunt0LOtIl-F0CnCVZ-112" value="" style="edgeStyle=orthogonalEdgeStyle;rounded=0;orthogonalLoop=1;jettySize=auto;html=1;" edge="1" parent="1" source="25" target="27">
          <mxGeometry relative="1" as="geometry" />
        </mxCell>
        <mxCell id="E3Iunt0LOtIl-F0CnCVZ-115" value="" style="edgeStyle=orthogonalEdgeStyle;rounded=0;orthogonalLoop=1;jettySize=auto;html=1;" edge="1" parent="1" source="25" target="E3Iunt0LOtIl-F0CnCVZ-100">
          <mxGeometry relative="1" as="geometry" />
        </mxCell>
        <mxCell id="25" value="num == 10 ?" style="rhombus;whiteSpace=wrap;html=1;" vertex="1" parent="1">
          <mxGeometry x="200" y="1520" width="160" height="80" as="geometry" />
        </mxCell>
        <mxCell id="E3Iunt0LOtIl-F0CnCVZ-116" value="" style="edgeStyle=orthogonalEdgeStyle;rounded=0;orthogonalLoop=1;jettySize=auto;html=1;" edge="1" parent="1" source="27" target="E3Iunt0LOtIl-F0CnCVZ-101">
          <mxGeometry relative="1" as="geometry" />
        </mxCell>
        <mxCell id="E3Iunt0LOtIl-F0CnCVZ-158" value="" style="edgeStyle=orthogonalEdgeStyle;rounded=0;orthogonalLoop=1;jettySize=auto;html=1;" edge="1" parent="1" source="27" target="29">
          <mxGeometry relative="1" as="geometry" />
        </mxCell>
        <mxCell id="27" value="num == 11 ?" style="rhombus;whiteSpace=wrap;html=1;" vertex="1" parent="1">
          <mxGeometry x="200" y="1640" width="160" height="80" as="geometry" />
        </mxCell>
        <mxCell id="E3Iunt0LOtIl-F0CnCVZ-117" value="" style="edgeStyle=orthogonalEdgeStyle;rounded=0;orthogonalLoop=1;jettySize=auto;html=1;" edge="1" parent="1" source="29" target="E3Iunt0LOtIl-F0CnCVZ-102">
          <mxGeometry relative="1" as="geometry" />
        </mxCell>
        <mxCell id="E3Iunt0LOtIl-F0CnCVZ-156" value="" style="edgeStyle=orthogonalEdgeStyle;rounded=0;orthogonalLoop=1;jettySize=auto;html=1;" edge="1" parent="1" source="29" target="E3Iunt0LOtIl-F0CnCVZ-155">
          <mxGeometry relative="1" as="geometry" />
        </mxCell>
        <mxCell id="29" value="num == 12 ?" style="rhombus;whiteSpace=wrap;html=1;" vertex="1" parent="1">
          <mxGeometry x="200" y="1760" width="160" height="80" as="geometry" />
        </mxCell>
        <mxCell id="31" value="Stop" style="ellipse;whiteSpace=wrap;html=1;" vertex="1" parent="1">
          <mxGeometry x="220" y="1920" width="120" height="40" as="geometry" />
        </mxCell>
        <mxCell id="E3Iunt0LOtIl-F0CnCVZ-77" value="" style="edgeStyle=orthogonalEdgeStyle;rounded=0;orthogonalLoop=1;jettySize=auto;html=1;" edge="1" parent="1" source="E3Iunt0LOtIl-F0CnCVZ-73" target="E3Iunt0LOtIl-F0CnCVZ-75">
          <mxGeometry relative="1" as="geometry" />
        </mxCell>
        <mxCell id="E3Iunt0LOtIl-F0CnCVZ-73" value="ประกาศตัวแปร num" style="parallelogram;whiteSpace=wrap;html=1;" vertex="1" parent="1">
          <mxGeometry x="200" y="80" width="160" height="40" as="geometry" />
        </mxCell>
        <mxCell id="E3Iunt0LOtIl-F0CnCVZ-84" value="" style="edgeStyle=orthogonalEdgeStyle;rounded=0;orthogonalLoop=1;jettySize=auto;html=1;" edge="1" parent="1" source="E3Iunt0LOtIl-F0CnCVZ-75" target="E3Iunt0LOtIl-F0CnCVZ-76">
          <mxGeometry relative="1" as="geometry" />
        </mxCell>
        <mxCell id="E3Iunt0LOtIl-F0CnCVZ-75" value="แสดงผล: User Input :" style="shape=parallelogram;perimeter=parallelogramPerimeter;whiteSpace=wrap;html=1;fixedSize=1;" vertex="1" parent="1">
          <mxGeometry x="200" y="160" width="160" height="40" as="geometry" />
        </mxCell>
        <mxCell id="E3Iunt0LOtIl-F0CnCVZ-83" value="" style="edgeStyle=orthogonalEdgeStyle;rounded=0;orthogonalLoop=1;jettySize=auto;html=1;" edge="1" parent="1" source="E3Iunt0LOtIl-F0CnCVZ-76" target="5">
          <mxGeometry relative="1" as="geometry" />
        </mxCell>
        <mxCell id="E3Iunt0LOtIl-F0CnCVZ-76" value="รับค่า: num" style="shape=parallelogram;perimeter=parallelogramPerimeter;whiteSpace=wrap;html=1;fixedSize=1;" vertex="1" parent="1">
          <mxGeometry x="200" y="240" width="160" height="40" as="geometry" />
        </mxCell>
        <mxCell id="E3Iunt0LOtIl-F0CnCVZ-128" style="edgeStyle=orthogonalEdgeStyle;rounded=0;orthogonalLoop=1;jettySize=auto;html=1;entryX=0.5;entryY=0;entryDx=0;entryDy=0;" edge="1" parent="1" source="E3Iunt0LOtIl-F0CnCVZ-78" target="E3Iunt0LOtIl-F0CnCVZ-118">
          <mxGeometry relative="1" as="geometry" />
        </mxCell>
        <mxCell id="E3Iunt0LOtIl-F0CnCVZ-78" value="แสดงผล: Result : Zero" style="shape=parallelogram;perimeter=parallelogramPerimeter;whiteSpace=wrap;html=1;fixedSize=1;" vertex="1" parent="1">
          <mxGeometry x="440" y="340" width="160" height="40" as="geometry" />
        </mxCell>
        <mxCell id="E3Iunt0LOtIl-F0CnCVZ-119" value="" style="edgeStyle=orthogonalEdgeStyle;rounded=0;orthogonalLoop=1;jettySize=auto;html=1;" edge="1" parent="1" source="E3Iunt0LOtIl-F0CnCVZ-81" target="E3Iunt0LOtIl-F0CnCVZ-118">
          <mxGeometry relative="1" as="geometry" />
        </mxCell>
        <mxCell id="E3Iunt0LOtIl-F0CnCVZ-81" value="แสดงผล: Result : One" style="shape=parallelogram;perimeter=parallelogramPerimeter;whiteSpace=wrap;html=1;fixedSize=1;" vertex="1" parent="1">
          <mxGeometry x="440" y="460" width="160" height="40" as="geometry" />
        </mxCell>
        <mxCell id="E3Iunt0LOtIl-F0CnCVZ-121" value="" style="edgeStyle=orthogonalEdgeStyle;rounded=0;orthogonalLoop=1;jettySize=auto;html=1;" edge="1" parent="1" source="E3Iunt0LOtIl-F0CnCVZ-86" target="E3Iunt0LOtIl-F0CnCVZ-120">
          <mxGeometry relative="1" as="geometry" />
        </mxCell>
        <mxCell id="E3Iunt0LOtIl-F0CnCVZ-86" value="แสดงผล: Result : Two" style="shape=parallelogram;perimeter=parallelogramPerimeter;whiteSpace=wrap;html=1;fixedSize=1;" vertex="1" parent="1">
          <mxGeometry x="440" y="580" width="160" height="40" as="geometry" />
        </mxCell>
        <mxCell id="E3Iunt0LOtIl-F0CnCVZ-123" value="" style="edgeStyle=orthogonalEdgeStyle;rounded=0;orthogonalLoop=1;jettySize=auto;html=1;" edge="1" parent="1" source="E3Iunt0LOtIl-F0CnCVZ-87" target="E3Iunt0LOtIl-F0CnCVZ-122">
          <mxGeometry relative="1" as="geometry" />
        </mxCell>
        <mxCell id="E3Iunt0LOtIl-F0CnCVZ-87" value="แสดงผล: Result : Three" style="shape=parallelogram;perimeter=parallelogramPerimeter;whiteSpace=wrap;html=1;fixedSize=1;" vertex="1" parent="1">
          <mxGeometry x="440" y="700" width="160" height="40" as="geometry" />
        </mxCell>
        <mxCell id="E3Iunt0LOtIl-F0CnCVZ-125" value="" style="edgeStyle=orthogonalEdgeStyle;rounded=0;orthogonalLoop=1;jettySize=auto;html=1;" edge="1" parent="1" source="E3Iunt0LOtIl-F0CnCVZ-88" target="E3Iunt0LOtIl-F0CnCVZ-124">
          <mxGeometry relative="1" as="geometry" />
        </mxCell>
        <mxCell id="E3Iunt0LOtIl-F0CnCVZ-88" value="แสดงผล: Result : Four" style="shape=parallelogram;perimeter=parallelogramPerimeter;whiteSpace=wrap;html=1;fixedSize=1;" vertex="1" parent="1">
          <mxGeometry x="440" y="820" width="160" height="40" as="geometry" />
        </mxCell>
        <mxCell id="E3Iunt0LOtIl-F0CnCVZ-127" value="" style="edgeStyle=orthogonalEdgeStyle;rounded=0;orthogonalLoop=1;jettySize=auto;html=1;" edge="1" parent="1" source="E3Iunt0LOtIl-F0CnCVZ-89" target="E3Iunt0LOtIl-F0CnCVZ-126">
          <mxGeometry relative="1" as="geometry" />
        </mxCell>
        <mxCell id="E3Iunt0LOtIl-F0CnCVZ-89" value="แสดงผล: Result : Five" style="shape=parallelogram;perimeter=parallelogramPerimeter;whiteSpace=wrap;html=1;fixedSize=1;" vertex="1" parent="1">
          <mxGeometry x="440" y="940" width="160" height="40" as="geometry" />
        </mxCell>
        <mxCell id="E3Iunt0LOtIl-F0CnCVZ-136" value="" style="edgeStyle=orthogonalEdgeStyle;rounded=0;orthogonalLoop=1;jettySize=auto;html=1;" edge="1" parent="1" source="E3Iunt0LOtIl-F0CnCVZ-90" target="E3Iunt0LOtIl-F0CnCVZ-133">
          <mxGeometry relative="1" as="geometry" />
        </mxCell>
        <mxCell id="E3Iunt0LOtIl-F0CnCVZ-90" value="แสดงผล: Result : Six" style="shape=parallelogram;perimeter=parallelogramPerimeter;whiteSpace=wrap;html=1;fixedSize=1;" vertex="1" parent="1">
          <mxGeometry x="440" y="1060" width="160" height="40" as="geometry" />
        </mxCell>
        <mxCell id="E3Iunt0LOtIl-F0CnCVZ-135" value="" style="edgeStyle=orthogonalEdgeStyle;rounded=0;orthogonalLoop=1;jettySize=auto;html=1;" edge="1" parent="1" source="E3Iunt0LOtIl-F0CnCVZ-91" target="E3Iunt0LOtIl-F0CnCVZ-134">
          <mxGeometry relative="1" as="geometry" />
        </mxCell>
        <mxCell id="E3Iunt0LOtIl-F0CnCVZ-91" value="แสดงผล: Result : Seven" style="shape=parallelogram;perimeter=parallelogramPerimeter;whiteSpace=wrap;html=1;fixedSize=1;" vertex="1" parent="1">
          <mxGeometry x="440" y="1180" width="160" height="40" as="geometry" />
        </mxCell>
        <mxCell id="E3Iunt0LOtIl-F0CnCVZ-148" value="" style="edgeStyle=orthogonalEdgeStyle;rounded=0;orthogonalLoop=1;jettySize=auto;html=1;" edge="1" parent="1" source="E3Iunt0LOtIl-F0CnCVZ-98" target="E3Iunt0LOtIl-F0CnCVZ-139">
          <mxGeometry relative="1" as="geometry" />
        </mxCell>
        <mxCell id="E3Iunt0LOtIl-F0CnCVZ-98" value="แสดงผล: Result : Eight" style="shape=parallelogram;perimeter=parallelogramPerimeter;whiteSpace=wrap;html=1;fixedSize=1;" vertex="1" parent="1">
          <mxGeometry x="440" y="1300" width="160" height="40" as="geometry" />
        </mxCell>
        <mxCell id="E3Iunt0LOtIl-F0CnCVZ-147" value="" style="edgeStyle=orthogonalEdgeStyle;rounded=0;orthogonalLoop=1;jettySize=auto;html=1;" edge="1" parent="1" source="E3Iunt0LOtIl-F0CnCVZ-99" target="E3Iunt0LOtIl-F0CnCVZ-140">
          <mxGeometry relative="1" as="geometry" />
        </mxCell>
        <mxCell id="E3Iunt0LOtIl-F0CnCVZ-99" value="แสดงผล: Result : Nine" style="shape=parallelogram;perimeter=parallelogramPerimeter;whiteSpace=wrap;html=1;fixedSize=1;" vertex="1" parent="1">
          <mxGeometry x="440" y="1420" width="160" height="40" as="geometry" />
        </mxCell>
        <mxCell id="E3Iunt0LOtIl-F0CnCVZ-146" value="" style="edgeStyle=orthogonalEdgeStyle;rounded=0;orthogonalLoop=1;jettySize=auto;html=1;" edge="1" parent="1" source="E3Iunt0LOtIl-F0CnCVZ-100" target="E3Iunt0LOtIl-F0CnCVZ-141">
          <mxGeometry relative="1" as="geometry" />
        </mxCell>
        <mxCell id="E3Iunt0LOtIl-F0CnCVZ-100" value="แสดงผล: Result : Ten" style="shape=parallelogram;perimeter=parallelogramPerimeter;whiteSpace=wrap;html=1;fixedSize=1;" vertex="1" parent="1">
          <mxGeometry x="440" y="1540" width="160" height="40" as="geometry" />
        </mxCell>
        <mxCell id="E3Iunt0LOtIl-F0CnCVZ-145" value="" style="edgeStyle=orthogonalEdgeStyle;rounded=0;orthogonalLoop=1;jettySize=auto;html=1;" edge="1" parent="1" source="E3Iunt0LOtIl-F0CnCVZ-101" target="E3Iunt0LOtIl-F0CnCVZ-142">
          <mxGeometry relative="1" as="geometry" />
        </mxCell>
        <mxCell id="E3Iunt0LOtIl-F0CnCVZ-101" value="แสดงผล: Result : Eleven" style="shape=parallelogram;perimeter=parallelogramPerimeter;whiteSpace=wrap;html=1;fixedSize=1;" vertex="1" parent="1">
          <mxGeometry x="440" y="1660" width="160" height="40" as="geometry" />
        </mxCell>
        <mxCell id="E3Iunt0LOtIl-F0CnCVZ-144" value="" style="edgeStyle=orthogonalEdgeStyle;rounded=0;orthogonalLoop=1;jettySize=auto;html=1;" edge="1" parent="1" source="E3Iunt0LOtIl-F0CnCVZ-102" target="E3Iunt0LOtIl-F0CnCVZ-143">
          <mxGeometry relative="1" as="geometry" />
        </mxCell>
        <mxCell id="E3Iunt0LOtIl-F0CnCVZ-102" value="แสดงผล: Result : Twelve" style="shape=parallelogram;perimeter=parallelogramPerimeter;whiteSpace=wrap;html=1;fixedSize=1;" vertex="1" parent="1">
          <mxGeometry x="440" y="1780" width="160" height="40" as="geometry" />
        </mxCell>
        <mxCell id="E3Iunt0LOtIl-F0CnCVZ-129" value="" style="edgeStyle=orthogonalEdgeStyle;rounded=0;orthogonalLoop=1;jettySize=auto;html=1;" edge="1" parent="1" source="E3Iunt0LOtIl-F0CnCVZ-118" target="E3Iunt0LOtIl-F0CnCVZ-120">
          <mxGeometry relative="1" as="geometry" />
        </mxCell>
        <mxCell id="E3Iunt0LOtIl-F0CnCVZ-118" value="" style="ellipse;whiteSpace=wrap;html=1;aspect=fixed;" vertex="1" parent="1">
          <mxGeometry x="680" y="475" width="10" height="10" as="geometry" />
        </mxCell>
        <mxCell id="E3Iunt0LOtIl-F0CnCVZ-130" value="" style="edgeStyle=orthogonalEdgeStyle;rounded=0;orthogonalLoop=1;jettySize=auto;html=1;" edge="1" parent="1" source="E3Iunt0LOtIl-F0CnCVZ-120" target="E3Iunt0LOtIl-F0CnCVZ-122">
          <mxGeometry relative="1" as="geometry" />
        </mxCell>
        <mxCell id="E3Iunt0LOtIl-F0CnCVZ-120" value="" style="ellipse;whiteSpace=wrap;html=1;aspect=fixed;" vertex="1" parent="1">
          <mxGeometry x="680" y="595" width="10" height="10" as="geometry" />
        </mxCell>
        <mxCell id="E3Iunt0LOtIl-F0CnCVZ-131" value="" style="edgeStyle=orthogonalEdgeStyle;rounded=0;orthogonalLoop=1;jettySize=auto;html=1;" edge="1" parent="1" source="E3Iunt0LOtIl-F0CnCVZ-122" target="E3Iunt0LOtIl-F0CnCVZ-124">
          <mxGeometry relative="1" as="geometry" />
        </mxCell>
        <mxCell id="E3Iunt0LOtIl-F0CnCVZ-122" value="" style="ellipse;whiteSpace=wrap;html=1;aspect=fixed;" vertex="1" parent="1">
          <mxGeometry x="680" y="715" width="10" height="10" as="geometry" />
        </mxCell>
        <mxCell id="E3Iunt0LOtIl-F0CnCVZ-132" value="" style="edgeStyle=orthogonalEdgeStyle;rounded=0;orthogonalLoop=1;jettySize=auto;html=1;" edge="1" parent="1" source="E3Iunt0LOtIl-F0CnCVZ-124" target="E3Iunt0LOtIl-F0CnCVZ-126">
          <mxGeometry relative="1" as="geometry" />
        </mxCell>
        <mxCell id="E3Iunt0LOtIl-F0CnCVZ-124" value="" style="ellipse;whiteSpace=wrap;html=1;aspect=fixed;" vertex="1" parent="1">
          <mxGeometry x="680" y="835" width="10" height="10" as="geometry" />
        </mxCell>
        <mxCell id="E3Iunt0LOtIl-F0CnCVZ-137" value="" style="edgeStyle=orthogonalEdgeStyle;rounded=0;orthogonalLoop=1;jettySize=auto;html=1;" edge="1" parent="1" source="E3Iunt0LOtIl-F0CnCVZ-126" target="E3Iunt0LOtIl-F0CnCVZ-133">
          <mxGeometry relative="1" as="geometry" />
        </mxCell>
        <mxCell id="E3Iunt0LOtIl-F0CnCVZ-126" value="" style="ellipse;whiteSpace=wrap;html=1;aspect=fixed;" vertex="1" parent="1">
          <mxGeometry x="680" y="955" width="10" height="10" as="geometry" />
        </mxCell>
        <mxCell id="E3Iunt0LOtIl-F0CnCVZ-138" value="" style="edgeStyle=orthogonalEdgeStyle;rounded=0;orthogonalLoop=1;jettySize=auto;html=1;" edge="1" parent="1" source="E3Iunt0LOtIl-F0CnCVZ-133" target="E3Iunt0LOtIl-F0CnCVZ-134">
          <mxGeometry relative="1" as="geometry" />
        </mxCell>
        <mxCell id="E3Iunt0LOtIl-F0CnCVZ-133" value="" style="ellipse;whiteSpace=wrap;html=1;aspect=fixed;" vertex="1" parent="1">
          <mxGeometry x="680" y="1075" width="10" height="10" as="geometry" />
        </mxCell>
        <mxCell id="E3Iunt0LOtIl-F0CnCVZ-149" value="" style="edgeStyle=orthogonalEdgeStyle;rounded=0;orthogonalLoop=1;jettySize=auto;html=1;" edge="1" parent="1" source="E3Iunt0LOtIl-F0CnCVZ-134" target="E3Iunt0LOtIl-F0CnCVZ-139">
          <mxGeometry relative="1" as="geometry" />
        </mxCell>
        <mxCell id="E3Iunt0LOtIl-F0CnCVZ-134" value="" style="ellipse;whiteSpace=wrap;html=1;aspect=fixed;" vertex="1" parent="1">
          <mxGeometry x="680" y="1195" width="10" height="10" as="geometry" />
        </mxCell>
        <mxCell id="E3Iunt0LOtIl-F0CnCVZ-150" value="" style="edgeStyle=orthogonalEdgeStyle;rounded=0;orthogonalLoop=1;jettySize=auto;html=1;" edge="1" parent="1" source="E3Iunt0LOtIl-F0CnCVZ-139" target="E3Iunt0LOtIl-F0CnCVZ-140">
          <mxGeometry relative="1" as="geometry" />
        </mxCell>
        <mxCell id="E3Iunt0LOtIl-F0CnCVZ-139" value="" style="ellipse;whiteSpace=wrap;html=1;aspect=fixed;" vertex="1" parent="1">
          <mxGeometry x="680" y="1315" width="10" height="10" as="geometry" />
        </mxCell>
        <mxCell id="E3Iunt0LOtIl-F0CnCVZ-151" value="" style="edgeStyle=orthogonalEdgeStyle;rounded=0;orthogonalLoop=1;jettySize=auto;html=1;" edge="1" parent="1" source="E3Iunt0LOtIl-F0CnCVZ-140" target="E3Iunt0LOtIl-F0CnCVZ-141">
          <mxGeometry relative="1" as="geometry" />
        </mxCell>
        <mxCell id="E3Iunt0LOtIl-F0CnCVZ-140" value="" style="ellipse;whiteSpace=wrap;html=1;aspect=fixed;" vertex="1" parent="1">
          <mxGeometry x="680" y="1435" width="10" height="10" as="geometry" />
        </mxCell>
        <mxCell id="E3Iunt0LOtIl-F0CnCVZ-152" value="" style="edgeStyle=orthogonalEdgeStyle;rounded=0;orthogonalLoop=1;jettySize=auto;html=1;" edge="1" parent="1" source="E3Iunt0LOtIl-F0CnCVZ-141" target="E3Iunt0LOtIl-F0CnCVZ-142">
          <mxGeometry relative="1" as="geometry" />
        </mxCell>
        <mxCell id="E3Iunt0LOtIl-F0CnCVZ-141" value="" style="ellipse;whiteSpace=wrap;html=1;aspect=fixed;" vertex="1" parent="1">
          <mxGeometry x="680" y="1555" width="10" height="10" as="geometry" />
        </mxCell>
        <mxCell id="E3Iunt0LOtIl-F0CnCVZ-153" value="" style="edgeStyle=orthogonalEdgeStyle;rounded=0;orthogonalLoop=1;jettySize=auto;html=1;" edge="1" parent="1" source="E3Iunt0LOtIl-F0CnCVZ-142" target="E3Iunt0LOtIl-F0CnCVZ-143">
          <mxGeometry relative="1" as="geometry" />
        </mxCell>
        <mxCell id="E3Iunt0LOtIl-F0CnCVZ-142" value="" style="ellipse;whiteSpace=wrap;html=1;aspect=fixed;" vertex="1" parent="1">
          <mxGeometry x="680" y="1675" width="10" height="10" as="geometry" />
        </mxCell>
        <mxCell id="E3Iunt0LOtIl-F0CnCVZ-154" style="edgeStyle=orthogonalEdgeStyle;rounded=0;orthogonalLoop=1;jettySize=auto;html=1;entryX=1;entryY=0.5;entryDx=0;entryDy=0;" edge="1" parent="1" source="E3Iunt0LOtIl-F0CnCVZ-143" target="E3Iunt0LOtIl-F0CnCVZ-155">
          <mxGeometry relative="1" as="geometry">
            <mxPoint x="399.6" y="1900" as="targetPoint" />
            <Array as="points">
              <mxPoint x="685" y="1885" />
            </Array>
          </mxGeometry>
        </mxCell>
        <mxCell id="E3Iunt0LOtIl-F0CnCVZ-143" value="" style="ellipse;whiteSpace=wrap;html=1;aspect=fixed;" vertex="1" parent="1">
          <mxGeometry x="680" y="1795" width="10" height="10" as="geometry" />
        </mxCell>
        <mxCell id="E3Iunt0LOtIl-F0CnCVZ-157" value="" style="edgeStyle=orthogonalEdgeStyle;rounded=0;orthogonalLoop=1;jettySize=auto;html=1;" edge="1" parent="1" source="E3Iunt0LOtIl-F0CnCVZ-155" target="31">
          <mxGeometry relative="1" as="geometry" />
        </mxCell>
        <mxCell id="E3Iunt0LOtIl-F0CnCVZ-155" value="" style="ellipse;whiteSpace=wrap;html=1;aspect=fixed;" vertex="1" parent="1">
          <mxGeometry x="275" y="1880" width="10" height="10" as="geometry" />
        </mxCell>
        <mxCell id="E3Iunt0LOtIl-F0CnCVZ-159" value="TRUE" style="text;html=1;align=center;verticalAlign=middle;whiteSpace=wrap;rounded=0;" vertex="1" parent="1">
          <mxGeometry x="360" y="330" width="60" height="30" as="geometry" />
        </mxCell>
        <mxCell id="E3Iunt0LOtIl-F0CnCVZ-160" value="FALSE" style="text;html=1;align=center;verticalAlign=middle;whiteSpace=wrap;rounded=0;" vertex="1" parent="1">
          <mxGeometry x="280" y="400" width="60" height="30" as="geometry" />
        </mxCell>
        <mxCell id="E3Iunt0LOtIl-F0CnCVZ-162" value="TRUE" style="text;html=1;align=center;verticalAlign=middle;whiteSpace=wrap;rounded=0;" vertex="1" parent="1">
          <mxGeometry x="360" y="450" width="60" height="30" as="geometry" />
        </mxCell>
        <mxCell id="E3Iunt0LOtIl-F0CnCVZ-163" value="FALSE" style="text;html=1;align=center;verticalAlign=middle;whiteSpace=wrap;rounded=0;" vertex="1" parent="1">
          <mxGeometry x="280" y="520" width="60" height="30" as="geometry" />
        </mxCell>
        <mxCell id="E3Iunt0LOtIl-F0CnCVZ-164" value="TRUE" style="text;html=1;align=center;verticalAlign=middle;whiteSpace=wrap;rounded=0;" vertex="1" parent="1">
          <mxGeometry x="360" y="570" width="60" height="30" as="geometry" />
        </mxCell>
        <mxCell id="E3Iunt0LOtIl-F0CnCVZ-165" value="FALSE" style="text;html=1;align=center;verticalAlign=middle;whiteSpace=wrap;rounded=0;" vertex="1" parent="1">
          <mxGeometry x="280" y="640" width="60" height="30" as="geometry" />
        </mxCell>
        <mxCell id="E3Iunt0LOtIl-F0CnCVZ-166" value="TRUE" style="text;html=1;align=center;verticalAlign=middle;whiteSpace=wrap;rounded=0;" vertex="1" parent="1">
          <mxGeometry x="360" y="690" width="60" height="30" as="geometry" />
        </mxCell>
        <mxCell id="E3Iunt0LOtIl-F0CnCVZ-167" value="FALSE" style="text;html=1;align=center;verticalAlign=middle;whiteSpace=wrap;rounded=0;" vertex="1" parent="1">
          <mxGeometry x="280" y="760" width="60" height="30" as="geometry" />
        </mxCell>
        <mxCell id="E3Iunt0LOtIl-F0CnCVZ-168" value="TRUE" style="text;html=1;align=center;verticalAlign=middle;whiteSpace=wrap;rounded=0;" vertex="1" parent="1">
          <mxGeometry x="360" y="810" width="60" height="30" as="geometry" />
        </mxCell>
        <mxCell id="E3Iunt0LOtIl-F0CnCVZ-169" value="FALSE" style="text;html=1;align=center;verticalAlign=middle;whiteSpace=wrap;rounded=0;" vertex="1" parent="1">
          <mxGeometry x="280" y="880" width="60" height="30" as="geometry" />
        </mxCell>
        <mxCell id="E3Iunt0LOtIl-F0CnCVZ-170" value="TRUE" style="text;html=1;align=center;verticalAlign=middle;whiteSpace=wrap;rounded=0;" vertex="1" parent="1">
          <mxGeometry x="360" y="930" width="60" height="30" as="geometry" />
        </mxCell>
        <mxCell id="E3Iunt0LOtIl-F0CnCVZ-171" value="FALSE" style="text;html=1;align=center;verticalAlign=middle;whiteSpace=wrap;rounded=0;" vertex="1" parent="1">
          <mxGeometry x="280" y="1000" width="60" height="30" as="geometry" />
        </mxCell>
        <mxCell id="E3Iunt0LOtIl-F0CnCVZ-172" value="TRUE" style="text;html=1;align=center;verticalAlign=middle;whiteSpace=wrap;rounded=0;" vertex="1" parent="1">
          <mxGeometry x="360" y="1050" width="60" height="30" as="geometry" />
        </mxCell>
        <mxCell id="E3Iunt0LOtIl-F0CnCVZ-173" value="FALSE" style="text;html=1;align=center;verticalAlign=middle;whiteSpace=wrap;rounded=0;" vertex="1" parent="1">
          <mxGeometry x="280" y="1120" width="60" height="30" as="geometry" />
        </mxCell>
        <mxCell id="E3Iunt0LOtIl-F0CnCVZ-174" value="TRUE" style="text;html=1;align=center;verticalAlign=middle;whiteSpace=wrap;rounded=0;" vertex="1" parent="1">
          <mxGeometry x="360" y="1169" width="60" height="30" as="geometry" />
        </mxCell>
        <mxCell id="E3Iunt0LOtIl-F0CnCVZ-175" value="FALSE" style="text;html=1;align=center;verticalAlign=middle;whiteSpace=wrap;rounded=0;" vertex="1" parent="1">
          <mxGeometry x="280" y="1239" width="60" height="30" as="geometry" />
        </mxCell>
        <mxCell id="E3Iunt0LOtIl-F0CnCVZ-176" value="TRUE" style="text;html=1;align=center;verticalAlign=middle;whiteSpace=wrap;rounded=0;" vertex="1" parent="1">
          <mxGeometry x="360" y="1290" width="60" height="30" as="geometry" />
        </mxCell>
        <mxCell id="E3Iunt0LOtIl-F0CnCVZ-177" value="FALSE" style="text;html=1;align=center;verticalAlign=middle;whiteSpace=wrap;rounded=0;" vertex="1" parent="1">
          <mxGeometry x="280" y="1360" width="60" height="30" as="geometry" />
        </mxCell>
        <mxCell id="E3Iunt0LOtIl-F0CnCVZ-178" value="TRUE" style="text;html=1;align=center;verticalAlign=middle;whiteSpace=wrap;rounded=0;" vertex="1" parent="1">
          <mxGeometry x="360" y="1410" width="60" height="30" as="geometry" />
        </mxCell>
        <mxCell id="E3Iunt0LOtIl-F0CnCVZ-179" value="FALSE" style="text;html=1;align=center;verticalAlign=middle;whiteSpace=wrap;rounded=0;" vertex="1" parent="1">
          <mxGeometry x="280" y="1480" width="60" height="30" as="geometry" />
        </mxCell>
        <mxCell id="E3Iunt0LOtIl-F0CnCVZ-180" value="TRUE" style="text;html=1;align=center;verticalAlign=middle;whiteSpace=wrap;rounded=0;" vertex="1" parent="1">
          <mxGeometry x="360" y="1530" width="60" height="30" as="geometry" />
        </mxCell>
        <mxCell id="E3Iunt0LOtIl-F0CnCVZ-181" value="FALSE" style="text;html=1;align=center;verticalAlign=middle;whiteSpace=wrap;rounded=0;" vertex="1" parent="1">
          <mxGeometry x="280" y="1600" width="60" height="30" as="geometry" />
        </mxCell>
        <mxCell id="E3Iunt0LOtIl-F0CnCVZ-182" value="TRUE" style="text;html=1;align=center;verticalAlign=middle;whiteSpace=wrap;rounded=0;" vertex="1" parent="1">
          <mxGeometry x="360" y="1650" width="60" height="30" as="geometry" />
        </mxCell>
        <mxCell id="E3Iunt0LOtIl-F0CnCVZ-183" value="FALSE" style="text;html=1;align=center;verticalAlign=middle;whiteSpace=wrap;rounded=0;" vertex="1" parent="1">
          <mxGeometry x="280" y="1720" width="60" height="30" as="geometry" />
        </mxCell>
        <mxCell id="E3Iunt0LOtIl-F0CnCVZ-184" value="TRUE" style="text;html=1;align=center;verticalAlign=middle;whiteSpace=wrap;rounded=0;" vertex="1" parent="1">
          <mxGeometry x="360" y="1770" width="60" height="30" as="geometry" />
        </mxCell>
        <mxCell id="E3Iunt0LOtIl-F0CnCVZ-185" value="FALSE" style="text;html=1;align=center;verticalAlign=middle;whiteSpace=wrap;rounded=0;" vertex="1" parent="1">
          <mxGeometry x="280" y="1840" width="60" height="30" as="geometry" />
        </mxCell>
      </root>
    </mxGraphModel>
  </diagram>
</mxfile>
